<?xml version="1.0" standalone="no"?><!DOCTYPE svg PUBLIC "-//W3C//DTD SVG 1.1//EN" "http://www.w3.org/Graphics/SVG/1.1/DTD/svg11.dtd"><svg t="1690796984308" class="icon" viewBox="0 0 1024 1024" version="1.1" xmlns="http://www.w3.org/2000/svg" p-id="3892" xmlns:xlink="http://www.w3.org/1999/xlink" width="200" height="200"><path d="M682.683332 810.620838c0 35.296553 28.697198 63.993751 63.99375 63.99375s63.993751-28.697198 63.993751-63.99375-28.697198-63.993751-63.993751-63.993751-63.993751 28.597207-63.99375 63.993751z" fill="#ffffff" p-id="3893"></path><path d="M867.565277 597.241676H625.688898l-119.988283 213.279172 119.988283 213.279172h241.876379l119.988282-213.279172-119.988282-213.279172z m-49.895128 85.391661l71.99297 127.987501-71.99297 127.987501h-141.986134l-71.992969-127.987501 71.992969-127.987501h141.986134z" fill="#ffffff" p-id="3894"></path><path d="M725.279172 191.981252c0 35.296553-28.697198 63.993751-63.993751 63.99375h-383.962503c-35.296553 0-63.993751-28.697198-63.993751-63.99375v-21.29792H128.037496v767.925007h298.670833c21.597891 0 39.796114 16.198418 42.39586 37.696319l0.299971 4.999512c0 21.597891-16.198418 39.796114-37.696319 42.395859l-4.999512 0.299971h-319.968753c-32.996778 0-60.494092-24.997559-63.69378-57.894346l-0.29997-6.099405V149.285421c0-32.996778 24.997559-60.494092 57.894346-63.69378l6.099404-0.29997h106.689581V63.993751c0-35.296553 28.697198-63.993751 63.993751-63.993751h383.962504c35.296553 0 63.993751 28.697198 63.99375 63.993751v21.29792H831.968753c32.996778 0 60.494092 24.997559 63.69378 57.894346l0.299971 6.099404v319.968753c0 23.597696-19.098135 42.59584-42.695831 42.595841-21.597891 0-39.796114-16.198418-42.295869-37.596329l-0.299971-4.999512V170.683332h-85.291671l-0.09999 21.29792zM639.987501 85.291671H298.720828v85.29167H639.987501V85.291671z" fill="#ffffff" p-id="3895"></path><path d="M298.720828 682.633337H384.012499c28.397227 0 42.69583 14.198613 42.69583 42.69583 0 28.397227-14.198613 42.69583-42.69583 42.695831h-85.291671c-28.397227 0-42.69583-14.198613-42.69583-42.695831 0-28.497217 14.198613-42.69583 42.69583-42.69583zM298.720828 426.658334H639.987501c28.397227 0 42.69583 14.198613 42.695831 42.695831 0 28.397227-14.198613 42.69583-42.695831 42.69583H298.720828c-28.397227 0-42.69583-14.198613-42.69583-42.69583 0-28.497217 14.198613-42.69583 42.69583-42.695831z" fill="#ffffff" p-id="3896"></path></svg>