<?xml version="1.0" standalone="no"?><!DOCTYPE svg PUBLIC "-//W3C//DTD SVG 1.1//EN" "http://www.w3.org/Graphics/SVG/1.1/DTD/svg11.dtd"><svg t="1690796963556" class="icon" viewBox="0 0 1030 1024" version="1.1" xmlns="http://www.w3.org/2000/svg" p-id="3547" xmlns:xlink="http://www.w3.org/1999/xlink" width="201.171875" height="200"><path d="M725.3 810.7c0 35.3 28.7 64 64 64s64-28.7 64-64-28.7-64-64-64-64 28.6-64 64z" fill="#ffffff" p-id="3548"></path><path d="M910.3 597.3H668.4l-120 213.3 120 213.3h241.9l120-213.3-120-213.3z m-49.9 85.4l72 128-72 128h-142l-72-128 72-128h142z" fill="#ffffff" p-id="3549"></path><path d="M0 64C0 31 25 3.5 57.9 0.3L64 0h896c33 0 60.5 25 63.7 57.9l0.3 6.1v448c0 23.6-19.1 42.6-42.7 42.6-21.6 0-39.8-16.2-42.3-37.6l-0.3-5V85.3H85.3v853.3h324.6c21.6 0 39.8 16.2 42.4 37.7l0.3 5c0 21.6-16.2 39.9-37.7 42.4l-4.9 0.3H64c-33 0-60.5-25-63.7-57.9L0 960V64z" fill="#ffffff" p-id="3550"></path><path d="M213.3 768h128c28.4 0 42.7 14.2 42.7 42.7 0 28.4-14.2 42.7-42.7 42.7h-128c-28.4 0-42.7-14.2-42.7-42.7 0.1-28.5 14.3-42.7 42.7-42.7z" fill="#ffffff" p-id="3551"></path><path d="M402.6 228.7L339.3 108 276 228.7l-128.7 26L237 355.2 220.6 492l118.7-58.5L458 492l-16.4-136.8 89.7-100.5z" p-id="3552" fill="#ffffff"></path><path d="M213.3 597.3h258c28.4 0 42.7 14.2 42.7 42.7 0 28.4-14.2 42.7-42.7 42.7h-258c-28.4 0-42.7-14.2-42.7-42.7 0.1-28.4 14.3-42.7 42.7-42.7zM661.3 154h128c28.4 0 42.7 14.2 42.7 42.7 0 28.4-14.2 42.7-42.7 42.7h-128c-28.4 0-42.7-14.2-42.7-42.7 0.1-28.5 14.3-42.7 42.7-42.7zM661.3 309.3h128c28.4 0 42.7 14.2 42.7 42.7 0 28.4-14.2 42.7-42.7 42.7h-128c-28.4 0-42.7-14.2-42.7-42.7 0.1-28.5 14.3-42.7 42.7-42.7z" fill="#ffffff" p-id="3553"></path></svg>