<?xml version="1.0" standalone="no"?><!DOCTYPE svg PUBLIC "-//W3C//DTD SVG 1.1//EN" "http://www.w3.org/Graphics/SVG/1.1/DTD/svg11.dtd"><svg t="1689748915737" class="icon" viewBox="0 0 1024 1024" version="1.1" xmlns="http://www.w3.org/2000/svg" p-id="2667" xmlns:xlink="http://www.w3.org/1999/xlink" width="200" height="200"><path d="M682.666167 0a42.666792 42.666792 0 0 1 25.940873 8.789957l4.266979 3.710982 207.059989 207.060989a63.999688 63.999688 0 0 1 18.43191 38.95381l0.298999 6.314969v204.500001a42.666792 42.666792 0 0 1-85.034585 4.991976l-0.298999-4.991976V273.662664L664.959253 85.333583H170.668667v853.328834H512a42.666792 42.666792 0 0 1 42.367793 37.673816l0.298999 4.991975a42.666792 42.666792 0 0 1-37.674816 42.367793L512 1023.995H149.334771a63.999688 63.999688 0 0 1-63.700689-57.855717L85.335083 959.995313V63.999688A63.999688 63.999688 0 0 1 143.191801 0.298999L149.334771 0h533.331396z" fill="#ffffff" p-id="2668"></path><path d="M682.666167 810.663042a63.999688 63.999688 0 1 0 127.999375 0 63.999688 63.999688 0 1 0-127.999375 0z" fill="#ffffff" p-id="2669"></path><path d="M867.625264 597.330083h-241.918819L505.728031 810.663042 625.706445 1023.995h241.918819l119.977414-213.331958-119.977414-213.332959z m-49.919757 85.333584l71.977649 127.999375-72.020648 127.999375H675.626201l-72.021648-127.999375 71.978648-127.999375h142.122306zM341.333833 682.663667h85.333584q42.665792 0 42.665791 42.665791 0 42.666792-42.665791 42.666792h-85.333584q-42.665792 0-42.665791-42.666792 0-42.665792 42.665791-42.665791zM341.333833 511.9975h127.999375Q512 511.9975 512 554.664292q0 42.665792-42.666792 42.665791h-127.999375q-42.665792 0-42.665791-42.665791 0-42.666792 42.665791-42.666792zM341.333833 341.331333h341.332334q42.665792 0 42.665791 42.666792t-42.665791 42.666792H341.333833q-42.665792 0-42.665791-42.666792t42.665791-42.666792z" fill="#ffffff" p-id="2670"></path></svg>