<?xml version="1.0" standalone="no"?><!DOCTYPE svg PUBLIC "-//W3C//DTD SVG 1.1//EN" "http://www.w3.org/Graphics/SVG/1.1/DTD/svg11.dtd"><svg t="1690796975309" class="icon" viewBox="0 0 1024 1024" version="1.1" xmlns="http://www.w3.org/2000/svg" p-id="3720" xmlns:xlink="http://www.w3.org/1999/xlink" width="200" height="200"><path d="M960 85.3c33 0 60.5 25 63.7 57.9l0.3 6.1v249.2c0 23.6-19.2 42.6-42.8 42.6-21.6 0-39.7-16.2-42.3-37.6l-0.3-4.9V170.7H85.3v682.7h294.2c21.6 0 39.8 16.2 42.4 37.7l0.3 5c0 21.6-16.2 39.9-37.7 42.4l-4.9 0.3H64c-33 0-60.5-25-63.7-57.9l-0.3-6.2V149.3c0-33 25-60.5 57.9-63.7l6.1-0.3h896z" fill="#ffffff" p-id="3721"></path><path d="M501.2 270.6c15.5-17.7 42.5-19.5 60.2-4 16.1 14.1 19.3 38.1 7.3 55.9l-3.2 4.3-149.4 170.7c-15.5 17.7-42.5 19.5-60.2 4l-0.2-0.2-3.8-3.8-149.4-170.7c-15.6-17.6-14-44.6 3.6-60.2 16.2-14.4 40.7-14.3 56.9 0.2l3.8 3.8L384 404.5l117.2-133.9z" fill="#ffffff" p-id="3722"></path><path d="M533.3 426.7c23.6 0 42.6 19.1 42.6 42.7 0 21.6-16.2 39.8-37.6 42.3l-5 0.3H234.7c-23.6 0-42.6-19.1-42.6-42.7 0-21.6 16.2-39.8 37.6-42.3l5-0.3h298.6zM512 597.3c23.6 0 42.6 19.1 42.6 42.7 0 21.6-16.2 39.8-37.6 42.3l-5 0.3H256c-23.6 0-42.6-19.1-42.6-42.7 0-21.6 16.2-39.8 37.6-42.3l5-0.3h256z" fill="#ffffff" p-id="3723"></path><path d="M384 426.7c21.6 0 39.8 16.2 42.4 37.7l0.3 5v256c0 23.6-19.1 42.6-42.7 42.6-21.6 0-39.8-16.2-42.3-37.6l-0.3-5v-256c-0.1-23.6 19-42.7 42.6-42.7zM719.1 725.3c0 35.3 28.7 64 64 64s64-28.7 64-64-28.7-64-64-64-64 28.7-64 64z" fill="#ffffff" p-id="3724"></path><path d="M904 512H662.1l-120 213.3 120 213.3H904l120-213.3L904 512z m-49.9 85.3l72 128-72 128H712l-72-128 72-128h142.1z" fill="#ffffff" p-id="3725"></path></svg>