<?xml version="1.0" standalone="no"?><!DOCTYPE svg PUBLIC "-//W3C//DTD SVG 1.1//EN" "http://www.w3.org/Graphics/SVG/1.1/DTD/svg11.dtd"><svg t="1690796994503" class="icon" viewBox="0 0 1031 1024" version="1.1" xmlns="http://www.w3.org/2000/svg" p-id="4063" xmlns:xlink="http://www.w3.org/1999/xlink" width="201.3671875" height="200"><path d="M485.657863 9.699053c14.098623-11.598867 34.09667-12.89874 49.595157-3.199688l4.39957 3.199688 469.254174 383.962503c42.69583 34.896592-6.799336 98.090421-49.995117 68.993263l-3.99961-2.999707L512.655227 97.79045 70.398416 459.655112c-42.69583 34.896592-94.790743-26.097451-57.794356-62.693878l3.799629-3.299678 469.254174-383.962503z" fill="#ffffff" p-id="4064"></path><path d="M128.692723 320.868665c21.597891 0 39.796114 16.198418 42.39586 37.696319l0.29997 4.999512v575.043843h298.970804c21.597891 0 39.796114 16.198418 42.39586 37.696319l0.29997 4.999512c0 21.597891-16.198418 39.796114-37.696318 42.395859l-4.999512 0.299971H149.990643c-33.99668 0-60.794063-26.697393-63.69378-59.59418l-0.299971-5.899424v-594.9419c0-23.597696 19.098135-42.69583 42.695831-42.695831z m767.925007 22.397813c21.597891 0 39.896104 16.198418 42.39586 37.696319l0.299971 4.899521v85.291671c0 23.597696-19.098135 42.59584-42.695831 42.59584-21.597891 0-39.796114-16.198418-42.295869-37.596328l-0.299971-4.999512v-85.291671c-0.09999-23.497705 18.998145-42.59584 42.59584-42.59584z" fill="#ffffff" p-id="4065"></path><path d="M299.376055 597.341666H469.959396c28.397227 0 42.69583 14.198613 42.695831 42.69583 0 28.397227-14.198613 42.69583-42.695831 42.695831H299.376055c-28.397227 0-42.69583-14.198613-42.695831-42.695831 0-28.497217 14.198613-42.69583 42.695831-42.69583zM299.376055 426.658334H469.959396c28.397227 0 42.69583 14.198613 42.695831 42.695831 0 28.397227-14.198613 42.69583-42.695831 42.69583H299.376055c-28.397227 0-42.69583-14.198613-42.695831-42.69583 0-28.497217 14.198613-42.69583 42.695831-42.695831zM299.376055 767.925007h85.29167c28.397227 0 42.69583 14.198613 42.695831 42.695831 0 28.397227-14.198613 42.69583-42.695831 42.69583h-85.29167c-28.397227 0-42.69583-14.198613-42.695831-42.69583 0-28.497217 14.198613-42.69583 42.695831-42.695831zM725.934398 810.620838c0 35.296553 28.697198 63.993751 63.993751 63.99375s63.993751-28.697198 63.993751-63.99375-28.697198-63.993751-63.993751-63.993751-63.993751 28.597207-63.993751 63.993751z" fill="#ffffff" p-id="4066"></path><path d="M910.916334 597.341666H669.039955l-119.988283 213.279172 119.988283 213.279172H910.916334l119.988282-213.279172-119.988282-213.279172z m-49.895128 85.291671l71.99297 127.987501-71.99297 127.987501H718.935082l-71.992969-127.987501 71.992969-127.987501h142.086124z" fill="#ffffff" p-id="4067"></path></svg>