<?xml version="1.0" standalone="no"?><!DOCTYPE svg PUBLIC "-//W3C//DTD SVG 1.1//EN" "http://www.w3.org/Graphics/SVG/1.1/DTD/svg11.dtd"><svg t="1689748725861" class="icon" viewBox="0 0 1024 1024" version="1.1" xmlns="http://www.w3.org/2000/svg" p-id="1823" xmlns:xlink="http://www.w3.org/1999/xlink" width="200" height="200"><path d="M896 85.333q42.667 0 42.667 42.667v768q0 42.667-42.667 42.667T853.333 896V128q0-42.667 42.667-42.667zM444.16 426.667H85.333v430.208c0 45.184 36.608 81.792 81.792 81.792H444.16c75.861 0 139.008-17.664 189.44-52.736 61.013-44.544 91.733-113.92 91.733-200.832 0-84.907-26.368-152.107-78.805-196.694-47.787-42.24-115.2-61.738-202.368-61.738zM170.667 853.333V512H444.16c68.139 0 115.84 13.824 146.517 40.875C623.061 580.437 640 623.616 640 685.099c0 61.184-19.2 104.533-55.979 131.37-34.432 23.979-80.64 36.864-139.861 36.864H170.667z" fill="#ffffff" p-id="1824"></path><path d="M419.84 85.333H167.125a81.792 81.792 0 0 0-81.792 81.792V512H419.84c69.675 0 127.744-14.08 174.379-42.24 58.368-36.821 88.448-95.701 88.448-169.13 0-71.467-25.856-128.555-76.203-165.718-44.544-34.005-106.41-49.579-186.624-49.579zM170.667 426.667v-256H419.84c63.147 0 107.477 11.136 135.381 32.426 27.947 20.694 42.112 51.883 42.112 97.494 0 45.098-16 76.373-48 96.64-31.573 19.072-74.496 29.44-129.493 29.44H170.667z" fill="#ffffff" p-id="1825"></path></svg>