<?xml version="1.0" standalone="no"?><!DOCTYPE svg PUBLIC "-//W3C//DTD SVG 1.1//EN" "http://www.w3.org/Graphics/SVG/1.1/DTD/svg11.dtd"><svg t="1689748789240" class="icon" viewBox="0 0 1024 1024" version="1.1" xmlns="http://www.w3.org/2000/svg" p-id="1963" xmlns:xlink="http://www.w3.org/1999/xlink" width="200" height="200"><path d="M487.204 503.765c119.467 81.92 169.046 122.368 184.15 160.811 177.194-57.515 261.973-76.928 295.509-61.397 67.84 31.488 80.725 149.248 10.24 211.498-57.856 51.158-333.184 182.059-390.315 187.52-31.061 2.987-87.21-12.672-177.194-44.373-8.96-3.2-18.22-6.485-27.734-9.941a5166.08 5166.08 0 0 1-60.63-22.486l-48.511-18.346c-40.661-15.36-115.797-15.36-222.72 2.176a42.667 42.667 0 0 1-13.824-84.182c120.533-19.797 208.555-19.797 266.667 2.134 3.456 1.322 36.949 14.037 48.469 18.346a5084.032 5084.032 0 0 0 86.656 31.787c73.472 25.899 128.128 41.173 140.715 39.936 38.058-3.627 296.917-126.72 341.93-166.528 23.254-20.48 21.419-57.813 12.97-67.968a131.968 131.968 0 0 0-10.452 1.067c-14.08 1.92-33.835 6.101-58.966 12.501-48.085 12.245-114.773 32.341-199.765 60.288-15.019 26.453-42.795 45.312-84.01 48.128-59.905 4.096-165.59-29.995-208.214-61.867a42.667 42.667 0 0 1 51.2-68.309c26.752 20.053 112.47 47.659 151.21 45.056 6.23-0.427 10.667-1.835 13.526-4.31a39.68 39.68 0 0 1 4.31-12.586c0-2.475-0.342-5.29-0.897-8.49 0.214 1.194-0.554-0.257-3.37-3.755a198.4 198.4 0 0 0-24.875-24.619c-24.875-21.504-64.213-50.475-124.33-91.69-87.126-59.734-133.334-69.633-161.878-58.795-12.288 4.693-87.04 54.272-209.493 140.202a42.667 42.667 0 1 1-49.024-69.845c134.4-94.293 205.482-141.483 228.18-150.144 57.9-21.973 132.182-5.973 240.47 68.181z" fill="#ffffff" p-id="1964"></path><path d="M875.087 0a64 64 0 0 1 64 64v128a64 64 0 0 1-64 64h-21.333v256a42.667 42.667 0 0 1-85.334 0V256l-512-0.043v85.376a42.667 42.667 0 0 1-85.333 0v-85.376l-21.333 0.043a64 64 0 0 1-63.702-57.856L85.754 192V64a64 64 0 0 1 64-64z m-704 85.333v85.334h682.667V85.333H171.087z" fill="#ffffff" p-id="1965"></path></svg>