<?xml version="1.0" standalone="no"?><!DOCTYPE svg PUBLIC "-//W3C//DTD SVG 1.1//EN" "http://www.w3.org/Graphics/SVG/1.1/DTD/svg11.dtd"><svg t="1690797003712" class="icon" viewBox="0 0 1024 1024" version="1.1" xmlns="http://www.w3.org/2000/svg" p-id="4234" xmlns:xlink="http://www.w3.org/1999/xlink" width="200" height="200"><path d="M298.7 298.7c28.4 0 42.7 14.2 42.7 42.7v341.3c0 28.4-14.2 42.7-42.7 42.7-28.4 0-42.7-14.2-42.7-42.7V341.3c0-28.4 14.2-42.6 42.7-42.6zM615.9 333.4h170.7c28.4 0 42.7 14.2 42.7 42.7 0 28.4-14.2 42.7-42.7 42.7H615.9c-28.4 0-42.7-14.2-42.7-42.7 0.1-28.5 14.3-42.7 42.7-42.7zM719.1 725.3c0 35.3 28.7 64 64 64s64-28.7 64-64-28.7-64-64-64-64 28.7-64 64z" fill="#ffffff" p-id="4235"></path><path d="M904 512H662.1l-120 213.3 120 213.3H904l120-213.3L904 512z m-49.9 85.3l72 128-72 128H712l-72-128 72-128h142.1z" fill="#ffffff" p-id="4236"></path><path d="M943.6 85.3H357.4c-5.8 0-11.2 3.1-14.2 8.2l-7.6 13.2c-11.8 20.4-37.9 27.4-58.3 15.7-6.5-3.8-11.9-9.2-15.7-15.7L254 93.6c-2.9-5.1-8.3-8.2-14.2-8.2H80.4C36 85.3 0 121.3 0 165.7v692.6c0 44.4 36 80.4 80.4 80.4h159.5c5.8 0 11.2-3.1 14.2-8.2l7.6-13.2c11.8-20.4 37.9-27.4 58.3-15.7 6.5 3.8 11.9 9.2 15.7 15.7l7.6 13.1c2.9 5.1 8.3 8.2 14.2 8.2h78.8c23.6 0 42.7-19.1 42.7-42.7s-19.1-42.7-42.7-42.7h-35.2c-4.5 0-8.9-1.9-12-5.2-24-24-56.5-37.4-90.5-37.4l-8.6 0.4c-30.9 2.1-60 15.2-81.8 37.1l-0.1 0.1c-3.1 3.3-7.4 5.1-11.9 5.1h-94.5c-9.1 0-16.4-7.3-16.4-16.4V187.1c0-9.1 7.3-16.4 16.4-16.4h94.5c4.5 0 8.9 1.9 12 5.2v0.1c23.6 23.5 55.8 37.4 90.5 37.4l8.6-0.3c30.9-2.1 59.9-15.3 81.8-37.1 3.1-3.3 7.5-5.2 12-5.2h521.1c9.1 0 16.4 7.3 16.4 16.4V351c0 23.6 19.1 42.7 42.7 42.7s42.7-19.1 42.7-42.7V165.7c0-44.4-36-80.4-80.4-80.4z" fill="#ffffff" p-id="4237"></path></svg>