<?xml version="1.0" standalone="no"?><!DOCTYPE svg PUBLIC "-//W3C//DTD SVG 1.1//EN" "http://www.w3.org/Graphics/SVG/1.1/DTD/svg11.dtd"><svg t="1694533316503" class="icon" viewBox="0 0 1024 1024" version="1.1" xmlns="http://www.w3.org/2000/svg" p-id="3406" xmlns:xlink="http://www.w3.org/1999/xlink" width="200" height="200"><path d="M886.5 17.8c33 0 60.5 25 63.7 57.9l0.3 6.1v405.3c0 23.6-19.1 42.6-42.7 42.6-21.6 0-39.8-16.2-42.3-37.6l-0.3-5v-384h-768v768h341.5c21.6 0 39.8 16.2 42.4 37.7l0.3 5c0 21.6-16.2 39.9-37.7 42.4l-4.9 0.3h-363c-33 0-60.5-25-63.7-57.9l-0.3-6.1V81.8c0-33 25-60.5 57.9-63.7l6.1-0.3h810.7z" fill="#ffffff" p-id="3407"></path><path d="M670.6 660.4h298.7c28.4 0 42.7 14.2 42.7 42.7 0 28.4-14.2 42.7-42.7 42.7H670.6c-28.4 0-42.7-14.2-42.7-42.7 0-28.5 14.2-42.7 42.7-42.7zM670.6 831h298.7c28.4 0 42.7 14.2 42.7 42.7 0 28.4-14.2 42.7-42.7 42.7H670.6c-28.4 0-42.7-14.2-42.7-42.7 0-28.4 14.2-42.7 42.7-42.7z" fill="#ffffff" p-id="3408"></path><path d="M700.7 843.4l90.5 90.5c16.4 16.9 15.9 44-1 60.3-16.5 16-42.7 16-59.3 0l-90.5-90.5c-16.7-16.7-16.7-43.7 0-60.4s43.7-16.6 60.3 0.1z m208.4-261.1l90.5 90.5c16.7 16.7 16.7 43.7 0 60.4-16.7 16.7-43.7 16.7-60.4 0l-90.5-90.5c-16.1-17.2-15.3-44.2 1.9-60.3 16.5-15.4 42.1-15.5 58.5-0.1zM567.9 206.9c15.5-17.7 42.5-19.5 60.2-4 16.1 14.1 19.3 38.1 7.3 55.9l-3.2 4.3-149.4 170.7c-15.5 17.7-42.5 19.5-60.2 4l-0.2-0.2-3.8-3.8-149.4-170.7c-15.6-17.6-14-44.6 3.6-60.2 16.2-14.4 40.7-14.3 56.9 0.2l3.8 3.8 117.2 133.9 117.2-133.9z" fill="#ffffff" p-id="3409"></path><path d="M600 363c23.6 0 42.6 19.1 42.6 42.7 0 21.6-16.2 39.8-37.6 42.3l-5 0.3H301.3c-23.6 0-42.6-19.1-42.6-42.7 0-21.6 16.2-39.8 37.6-42.3l5-0.3H600z m-21.3 170.7c23.6 0 42.6 19.1 42.6 42.7 0 21.6-16.2 39.8-37.6 42.3l-5 0.3h-256c-23.6 0-42.6-19.1-42.6-42.7 0-21.6 16.2-39.8 37.6-42.3l5-0.3h256z" fill="#ffffff" p-id="3410"></path><path d="M450.7 363c21.6 0 39.8 16.2 42.4 37.7l0.3 5v256c0 23.6-19.1 42.6-42.7 42.6-21.6 0-39.8-16.2-42.3-37.6l-0.3-5v-256c-0.1-23.6 19-42.7 42.6-42.7z" fill="#ffffff" p-id="3411"></path></svg>