<?xml version="1.0" standalone="no"?><!DOCTYPE svg PUBLIC "-//W3C//DTD SVG 1.1//EN" "http://www.w3.org/Graphics/SVG/1.1/DTD/svg11.dtd"><svg t="1689749558677" class="icon" viewBox="0 0 1024 1024" version="1.1" xmlns="http://www.w3.org/2000/svg" p-id="4079" xmlns:xlink="http://www.w3.org/1999/xlink" width="200" height="200"><path d="M959.991563 0H63.999438A63.999438 63.999438 0 0 0 0 63.999438v341.33a63.999438 63.999438 0 0 0 63.999438 63.999437h895.992125a63.999438 63.999438 0 0 0 63.999437-63.999437V63.999438a63.999438 63.999438 0 0 0-63.999437-63.999438z m-21.332813 85.33225V383.996625H85.33225V85.33225h853.3265zM469.328875 554.662125a42.666625 42.666625 0 0 1 4.991956 85.033253l-4.991956 0.298997h-383.996625v298.664375h383.996625a42.666625 42.666625 0 0 1 42.367628 37.673669l0.298997 4.991956a42.666625 42.666625 0 0 1-37.674669 42.367628l-4.991956 0.298997H63.999438A63.999438 63.999438 0 0 1 0.298997 966.135509L0 959.991563V618.661563a63.999438 63.999438 0 0 1 57.855492-63.701441l6.143946-0.297997h405.329437zM703.993813 810.659875a63.999438 63.999438 0 1 0 127.998875 0 63.999438 63.999438 0 1 0-127.998875 0z" fill="#ffffff" p-id="4080"></path><path d="M888.952187 597.32775H647.034313L527.056368 810.659875 647.034313 1023.991h241.917874l119.977945-213.331125L888.952187 597.32775z m-49.919561 85.33325l71.978367 127.998875-72.021367 127.998875H696.953874l-72.020367-127.998875 71.977368-127.998875H839.032626zM234.664938 170.6655h42.665625q21.333812 0 21.333812 21.332813v85.33225q0 21.333812-21.333812 21.333812h-42.665625q-21.333812 0-21.333813-21.333812V191.998313q0-21.332813 21.333813-21.332813zM234.664938 725.326625h42.665625q21.333812 0 21.333812 21.333813V831.992688q0 21.332813-21.333812 21.332812h-42.665625q-21.333812 0-21.333813-21.332812v-85.33225q0-21.333812 21.333813-21.333813zM405.329438 170.6655H447.996063q21.332813 0 21.332812 21.332813v85.33225q0 21.333812-21.332812 21.333812h-42.666625q-21.332813 0-21.332813-21.333812V191.998313q0-21.332813 21.332813-21.332813zM405.329438 725.326625H447.996063q21.332813 0 21.332812 21.333813V831.992688q0 21.332813-21.332812 21.332812h-42.666625Q383.996625 853.3255 383.996625 831.992688v-85.33225q0-21.333812 21.332813-21.333813z" fill="#ffffff" p-id="4081"></path></svg>