<?xml version="1.0" standalone="no"?><!DOCTYPE svg PUBLIC "-//W3C//DTD SVG 1.1//EN" "http://www.w3.org/Graphics/SVG/1.1/DTD/svg11.dtd"><svg t="1690796861641" class="icon" viewBox="0 0 1024 1024" version="1.1" xmlns="http://www.w3.org/2000/svg" p-id="3377" xmlns:xlink="http://www.w3.org/1999/xlink" width="200" height="200"><path d="M687.1 170.6c7.9 0 15.7 2.2 22.5 6.4l4.8 3.5L918 350l3.6 3.4c9.2 9.6 14.8 22 16.2 35.1l0.4 6.6v118.8c0 23.6-19.1 42.6-42.7 42.6-21.6 0-39.8-16.2-42.3-37.6l-0.3-5V406.8L671.7 255.9H255.9v682.4h255.9c21.6 0 39.8 16.2 42.3 37.7l0.3 5c0 21.6-16.2 39.8-37.7 42.3l-5 0.3H229.8c-30.8-0.2-56.3-23.8-59-54.4l-0.3-5.7V230.7c0-30.8 23-56.9 53.4-59.8l5.8-0.3h457.4z" fill="#ffffff" p-id="3378"></path><path d="M639.7 0c21.6 0 39.8 16.2 42.3 37.7l0.3 5v170.6c0 23.6-19.1 42.6-42.7 42.6-21.6 0-39.8-16.2-42.3-37.6l-0.3-5v-128H85.3V725h127.9c21.6 0 39.8 16.2 42.3 37.7l0.3 5c0 21.6-16.2 39.8-37.7 42.3l-5 0.3h-154c-30.7 0-56.1-23.4-59-53.4l-0.1-5.7V59.1C0 28.3 23.5 3.1 53.5 0.2l5.8-0.2h580.4z" fill="#ffffff" p-id="3379"></path><path d="M383.8 511.8h197.5c23.6 0 42.6 19.1 42.6 42.6 0 23.6-19.1 42.6-42.6 42.6H383.8c-23.6 0-42.6-19.1-42.6-42.6s19.1-42.6 42.6-42.6z m0 170.6H487c23.6 0 42.6 19.1 42.6 42.6 0 23.6-19.1 42.6-42.6 42.6H383.8c-23.6 0-42.6-19.1-42.6-42.6s19.1-42.6 42.6-42.6zM719.1 810.7c0 35.3 28.7 64 64 64s64-28.7 64-64-28.7-64-64-64-64 28.6-64 64z" fill="#ffffff" p-id="3380"></path><path d="M904 597.3H662.1l-120 213.3 120 213.3H904l120-213.3-120-213.3z m-49.9 85.4l72 128-72 128H712l-72-128 72-128h142.1z" fill="#ffffff" p-id="3381"></path></svg>