<?xml version="1.0" standalone="no"?><!DOCTYPE svg PUBLIC "-//W3C//DTD SVG 1.1//EN" "http://www.w3.org/Graphics/SVG/1.1/DTD/svg11.dtd"><svg t="1689748848183" class="icon" viewBox="0 0 1024 1024" version="1.1" xmlns="http://www.w3.org/2000/svg" p-id="2244" xmlns:xlink="http://www.w3.org/1999/xlink" width="200" height="200"><path d="M682.665167 810.658292a63.999313 63.999313 0 1 0 127.998625 0 63.999313 63.999313 0 1 0-127.998625 0z" fill="#ffffff" p-id="2245"></path><path d="M867.62318 597.326583h-241.917401L505.728067 810.658292 625.705779 1023.989h241.917401l119.976711-213.330708-119.976711-213.331709z m-49.919464 85.333084l71.977227 127.998625-72.020226 127.998625H675.625242l-72.021226-127.998625 71.978227-127.998625h142.121473z" fill="#ffffff" p-id="2246"></path><path d="M466.005494 0C632.659704 0 767.99725 133.588565 767.99725 298.663792a296.871811 296.871811 0 0 1-112.382793 232.445503 42.666542 42.666542 0 1 1-53.247428-66.645284 211.581727 211.581727 0 0 0 80.298138-165.800219c0-117.673736-96.85296-213.331708-216.659673-213.331709s-216.701672 95.657972-216.701672 213.331709c0 83.881099 49.621467 158.803294 125.182655 193.405922l8.831905 3.839959 22.186762 8.959904 3.839959 23.679745c4.266954 25.983721 6.399931 51.881443 6.399931 77.652166 0 66.389287-14.036849 115.668757-45.994506 146.430427l-6.185933 5.546941L351.701722 767.99175H136.409035l57.64238 170.665167h235.816467a42.666542 42.666542 0 0 1 42.409545 37.673595l0.255997 4.991946a42.666542 42.666542 0 0 1-37.673595 42.367545l-4.991947 0.298997h-250.877305c-25.599725 0-48.554478-15.060838-58.794368-38.14359l-2.132977-5.460941L46.042005 767.05176a63.956313 63.956313 0 0 1 54.101419-84.052097l6.825927-0.340996h209.960744l1.91998-3.541962c6.399931-13.311857 10.666885-34.132633 11.434877-63.017323l0.127999-9.898894c0-10.580886-0.426995-21.204772-1.279987-31.829658l-1.066988-10.025892-7.42392-3.839959a298.236796 298.236796 0 0 1-156.45732-250.45031l-0.212997-11.391877C163.971739 133.587565 299.309285 0 466.005494 0z" fill="#ffffff" p-id="2247"></path></svg>