<?xml version="1.0" standalone="no"?><!DOCTYPE svg PUBLIC "-//W3C//DTD SVG 1.1//EN" "http://www.w3.org/Graphics/SVG/1.1/DTD/svg11.dtd"><svg t="1689749501191" class="icon" viewBox="0 0 1024 1024" version="1.1" xmlns="http://www.w3.org/2000/svg" p-id="3939" xmlns:xlink="http://www.w3.org/1999/xlink" width="200" height="200"><path d="M0 64v896a64 64 0 0 0 64 64h896a64 64 0 0 0 64-64V64a64 64 0 0 0-64-64H64A64 64 0 0 0 0 64z m85.333 21.333h853.334v853.334H85.333V85.333z" fill="#ffffff" p-id="3940"></path><path d="M813.013 256.085l-2.346-0.085a43.093 43.093 0 0 1 27.989 10.453l0.768 0.683 0.512 0.47 2.219 2.26-2.731-2.73a43.09 43.09 0 0 1 4.096 4.31l0.427 0.554 2.346 3.2a42.24 42.24 0 0 1 3.286 5.973A42.581 42.581 0 0 1 874.667 320v213.333a42.667 42.667 0 0 1-85.334 0v-148.01L567.552 628.352a64 64 0 0 1-82.603 10.24l-5.034-3.712-134.016-108.97-97.707 138.666a42.667 42.667 0 0 1-54.87 13.099l-4.565-2.816a42.667 42.667 0 0 1-13.098-54.87l2.816-4.565 110.848-157.312a64 64 0 0 1 89.173-15.445l3.541 2.645 136.064 110.635 195.84-214.614H597.333a42.667 42.667 0 0 1 0-85.333h213.888a42.667 42.667 0 0 1 1.792 0.085zM213.333 768h597.334q42.666 0 42.666 42.667 0 42.666-42.666 42.666H213.333q-42.666 0-42.666-42.666 0-42.667 42.666-42.667z" fill="#ffffff" p-id="3941"></path></svg>