<?xml version="1.0" standalone="no"?><!DOCTYPE svg PUBLIC "-//W3C//DTD SVG 1.1//EN" "http://www.w3.org/Graphics/SVG/1.1/DTD/svg11.dtd"><svg t="1699929740479" class="icon" viewBox="0 0 1024 1024" version="1.1" xmlns="http://www.w3.org/2000/svg" p-id="4950" xmlns:xlink="http://www.w3.org/1999/xlink" width="200" height="200"><path d="M487.2 525.2c119.5 81.9 169 122.4 184.1 160.8 177.2-57.5 262-76.9 295.5-61.4 67.8 31.5 80.7 149.2 10.2 211.5-57.9 51.2-333.2 182.1-390.3 187.5-31.1 3-87.2-12.7-177.2-44.4-9-3.2-18.2-6.5-27.7-9.9-20.3-7.4-40.5-14.9-60.6-22.5l-48.5-18.3C232 913.1 156.9 913.1 50 930.7c-23.3 3.3-44.9-13-48.2-36.4-3.2-22.6 12-43.6 34.3-47.8 120.5-19.8 208.6-19.8 266.7 2.1 3.5 1.3 36.9 14 48.5 18.3 28.8 10.9 57.7 21.5 86.7 31.8 73.5 25.9 128.1 41.2 140.7 39.9 38.1-3.6 296.9-126.7 341.9-166.5 23.3-20.5 21.4-57.8 13-68-3.5 0.2-7 0.6-10.5 1.1-14.1 1.9-33.8 6.1-59 12.5C816 729.9 749.3 750 664.3 778c-15 26.5-42.8 45.3-84 48.1-59.9 4.1-165.6-30-208.2-61.9-18.9-14.1-22.7-40.9-8.6-59.8s40.9-22.7 59.8-8.6c26.8 20.1 112.5 47.7 151.2 45.1 6.2-0.4 10.7-1.8 13.5-4.3 0.7-4.4 2.2-8.7 4.3-12.6 0-2.5-0.3-5.3-0.9-8.5 0.2 1.2-0.6-0.3-3.4-3.8-7.6-8.9-15.9-17.2-24.9-24.6-24.9-21.5-64.2-50.5-124.3-91.7-87.1-59.7-133.3-69.6-161.9-58.8-12.3 4.7-87 54.3-209.5 140.2-19.3 13.6-45.9 9-59.5-10.2-13.6-19.3-9-45.9 10.2-59.5 0.1 0 0.1-0.1 0.2-0.1C153 512.9 224 465.7 246.7 457c57.9-21.9 132.2-5.9 240.5 68.2z" fill="#FFFFFF" p-id="4951"></path><path d="M213.3 399.5v-90.1L512 85.3l298.7 224v180.1c0 23.6 19.1 42.7 42.7 42.7s42.7-19.1 42.7-42.7V309.3c0-26.9-12.6-52.2-34.1-68.3L563.3 17C533-5.8 491.2-5.8 460.9 17L162.2 241c-21.5 16.1-34.1 41.4-34.1 68.3v90.1c0 23.6 19.1 42.7 42.7 42.7 23.4 0 42.5-19.1 42.5-42.6z" fill="#FFFFFF" p-id="4952"></path><path d="M511.6 193.3C440.8 193.6 384 252 384 322.7v56.7c0 23.6 19.1 42.7 42.7 42.7s42.7-19.1 42.7-42.7V322c0-23.4 18.5-43 41.9-43.4 23.9-0.4 43.4 18.9 43.4 42.7v58.1c0 23.6 19.1 42.7 42.7 42.7s42.7-19.1 42.7-42.7v-58.1c-0.1-70.8-57.6-128.2-128.5-128z" fill="#FFFFFF" p-id="4953"></path></svg>