<?xml version="1.0" standalone="no"?><!DOCTYPE svg PUBLIC "-//W3C//DTD SVG 1.1//EN" "http://www.w3.org/Graphics/SVG/1.1/DTD/svg11.dtd"><svg t="1689748654244" class="icon" viewBox="0 0 1024 1024" version="1.1" xmlns="http://www.w3.org/2000/svg" p-id="1402" xmlns:xlink="http://www.w3.org/1999/xlink" width="200" height="200"><path d="M490.667001 256.000052a149.33299 149.33299 0 0 1 47.188997 291.071981l-4.522999 1.323V576.000031a42.666997 42.666997 0 0 1-37.673998 42.367997l-4.992 0.299a42.666997 42.666997 0 0 1-42.367997-37.674998L448.000004 576.000031v-63.999996a42.666997 42.666997 0 0 1 37.674998-42.367997l4.991999-0.299a63.999996 63.999996 0 1 0-63.701995-70.143995l-0.298 6.143999a42.666997 42.666997 0 1 1-85.333994 0A149.33299 149.33299 0 0 1 490.667001 256.000052z m0 405.332973a42.666997 42.666997 0 0 1 42.367998 37.674997l0.298 4.992v21.332998a42.666997 42.666997 0 0 1-85.033995 4.992l-0.299-4.992V704.000022a42.666997 42.666997 0 0 1 42.666997-42.666997z" fill="#ffffff" p-id="1403"></path><path d="M682.666988 0.00007H149.333025a63.999996 63.999996 0 0 0-63.999996 63.999996v895.999938a63.999996 63.999996 0 0 0 63.999996 63.999996H895.999974a42.666997 42.666997 0 0 0 42.666997-42.666997V264.832052a63.999996 63.999996 0 0 0-18.773999-45.226997L712.874986 12.460069A42.666997 42.666997 0 0 0 682.666988 0.00007zM664.95999 85.333064l188.372987 188.330987v665.002955H170.667023V85.333064H664.95999z" fill="#ffffff" p-id="1404"></path></svg>