<?xml version="1.0" standalone="no"?><!DOCTYPE svg PUBLIC "-//W3C//DTD SVG 1.1//EN" "http://www.w3.org/Graphics/SVG/1.1/DTD/svg11.dtd"><svg t="1699930119943" class="icon" viewBox="0 0 1024 1024" version="1.1" xmlns="http://www.w3.org/2000/svg" p-id="4819" xmlns:xlink="http://www.w3.org/1999/xlink" width="200" height="200"><path d="M945 645c27.7-188.4-72-376.8-243.8-459.9 0-99.7-83.1-182.8-188.4-182.8-49.9 0-99.7 22.2-133 55.4-33.2 33.2-55.4 77.6-55.4 127.4C152.7 268.2 52.9 456.6 75.1 650.5c-77.6 55.4-99.7 171.8-44.3 254.9s171.8 105.3 254.9 55.4c72 38.8 149.6 60.9 227.2 60.9s155.1-22.2 221.6-55.4c38.8 22.2 83.1 33.2 133 22.2 49.9-11.1 94.2-38.8 121.9-83.1 60.8-88.7 38.7-199.5-44.4-260.4zM429.7 146.3c16.6-33.2 49.9-49.9 83.1-49.9 49.9 0 94.2 44.3 94.2 94.2s-44.3 94.2-94.2 94.2c-33.2 0-66.5-16.6-83.1-44.3s-16.6-66.5 0-94.2zM191.5 888.8c-49.9 0-94.2-44.3-94.2-94.2s44.3-94.2 94.2-94.2c55.4 0 94.2 44.3 94.2 94.2s-44.4 94.2-94.2 94.2z m482-199.5c-38.8 60.9-38.8 138.5-5.5 199.5-49.9 27.7-99.7 38.8-155.1 38.8s-110.8-11.1-155.1-33.2c38.8-60.9 33.2-138.5-5.5-199.5-44.3-60.9-110.8-94.2-182.8-83.1-11.1-138.5 60.9-265.9 177.3-332.4C380 340.3 441 379.1 513 379.1c66.5 0 133-38.8 166.2-99.7 116.4 66.5 188.4 193.9 177.3 326.9-72.2-11.2-144.2 22.1-183 83z m155.1 199.5c-49.9 0-94.2-44.3-94.2-94.2s44.3-94.2 94.2-94.2c55.4 0 94.2 44.3 94.2 94.2s-44.3 94.2-94.2 94.2z" fill="#FFFFFF" p-id="4820"></path></svg>