<?xml version="1.0" standalone="no"?><!DOCTYPE svg PUBLIC "-//W3C//DTD SVG 1.1//EN" "http://www.w3.org/Graphics/SVG/1.1/DTD/svg11.dtd"><svg t="1689749759718" class="icon" viewBox="0 0 1024 1024" version="1.1" xmlns="http://www.w3.org/2000/svg" p-id="4360" xmlns:xlink="http://www.w3.org/1999/xlink" width="200" height="200"><path d="M874.657604 0a63.999313 63.999313 0 0 1 63.700316 57.855379l0.298997 6.143934v320.764554a42.666542 42.666542 0 0 1-85.034087 4.991946l-0.298997-4.991946V85.332083H170.665167v853.324834h299.046787a42.666542 42.666542 0 0 1 42.367545 37.673595l0.298997 4.991946a42.666542 42.666542 0 0 1-37.674595 42.367545l-4.991947 0.298997H149.331396a63.999313 63.999313 0 0 1-63.700316-57.855378L85.332083 959.989688V63.999313A63.999313 63.999313 0 0 1 143.188462 0.298997L149.331396 0h725.326208z" fill="#ffffff" p-id="4361"></path><path d="M703.992438 170.665167a63.999313 63.999313 0 0 1 63.700315 57.855378l0.298997 6.143934v106.664854a42.666542 42.666542 0 0 1-85.034086 4.991947l-0.297997-4.991947V255.99725H341.329333v170.665167h213.757704a42.666542 42.666542 0 0 1 42.367545 37.673595l0.298997 4.991946a42.666542 42.666542 0 0 1-37.716595 42.367545l-4.949947 0.298997H319.996563a63.999313 63.999313 0 0 1-63.700316-57.855378L255.99725 447.995188V234.664479a63.999313 63.999313 0 0 1 57.855379-63.701316l6.143934-0.297996h383.995875zM298.663792 682.659667h170.664166q42.666542 0 42.666542 42.665541Q511.9945 767.99175 469.327958 767.99175H298.663792Q255.99725 767.99175 255.99725 725.325208q0-42.665542 42.666542-42.665541z" fill="#ffffff" p-id="4362"></path><path d="M426.662417 639.993125v170.665167q0 42.665542-42.666542 42.665541t-42.666542-42.665541V639.993125q0-42.666542 42.666542-42.666542T426.662417 639.993125zM810.658292 511.9945C925.857054 511.9945 1023.989 555.599032 1023.989 630.521227l-0.169998 5.460941 0.169998 4.010957v256.253247C1023.989 974.922527 925.430059 1023.989 810.658292 1023.989c-111.358804 0-207.357773-46.164504-213.075711-120.659704l-0.255998-7.082924V639.993125l0.213998-4.052956-0.213998-5.418942c0-72.660219 92.245009-115.838756 202.920821-118.398728l10.409888-0.127999z m0 374.523977c-47.44549 0-92.031011-7.42392-127.998625-21.332771v31.060666c0 3.71196 7.551919 12.586865 26.367716 21.972764 25.556725 12.757863 62.036334 20.43778 101.630909 20.437781 39.593575 0 76.073183-7.679918 101.630908-20.437781 16.72482-8.319911 24.532736-16.297825 26.06872-20.564779l0.298997-1.407985 0.041999-31.103666c-35.967614 13.95185-80.553135 21.332771-128.040624 21.332771zM938.698916 727.672183c-35.967614 13.95185-80.553135 21.332771-128.040624 21.332771-47.44549 0-92.031011-7.380921-127.998625-21.332771V767.99175l5.54594 4.180955c3.882958 2.730971 10.069892 6.442931 19.114795 10.453888 26.02672 11.561876 63.146322 18.559801 103.33789 18.559801s77.353169-6.997925 103.33689-18.559801c18.090806-8.021914 24.661735-14.93384 24.661735-14.634843l0.041999-40.319567zM810.658292 597.326583c-40.191568 0-77.354169 6.997925-103.33789 18.559801-7.252922 3.199966-12.629864 6.229933-16.511823 8.703907l-2.602972 1.706981-5.54594 4.223955 3.455963 2.687971c3.625961 2.729971 10.324889 7.124923 21.204772 11.946872 26.02672 11.519876 63.146322 18.559801 103.33789 18.5598s77.353169-6.997925 103.33689-18.5598c5.418942-2.389974 9.813895-4.69395 13.311857-6.741928l5.802937-3.71196 5.546941-4.180955-5.546941-4.223955a117.758735 117.758735 0 0 0-19.114794-10.409888c-26.02572-11.562876-63.145322-18.559801-103.33689-18.559801z" fill="#ffffff" p-id="4363"></path></svg>