<?xml version="1.0" standalone="no"?><!DOCTYPE svg PUBLIC "-//W3C//DTD SVG 1.1//EN" "http://www.w3.org/Graphics/SVG/1.1/DTD/svg11.dtd"><svg t="1689749038506" class="icon" viewBox="0 0 1030 1024" version="1.1" xmlns="http://www.w3.org/2000/svg" p-id="3517" xmlns:xlink="http://www.w3.org/1999/xlink" width="201.171875" height="200"><path d="M874.657604 0a63.999313 63.999313 0 0 1 63.700316 57.855379l0.298997 6.143934v440.059272a42.666542 42.666542 0 0 1-85.034087 4.991947l-0.298997-4.991947v-77.396168H554.704041v96.76696a85.332083 85.332083 0 1 1-85.375083 0l-0.041999-96.76696H170.665167v511.9945H511.9945a42.666542 42.666542 0 0 1 42.367545 37.673595l0.298997 4.991946a42.666542 42.666542 0 0 1-37.674596 42.367545L511.9945 1023.989H149.331396a63.999313 63.999313 0 0 1-63.700316-57.855378L85.332083 959.989688V63.999313A63.999313 63.999313 0 0 1 143.188462 0.298997L149.331396 0h725.326208z m-21.333771 85.332083H170.665167v255.99725H469.284959V329.896456a85.332083 85.332083 0 1 1 85.417082 0v11.433877h298.620792v-255.99725z" fill="#ffffff" p-id="3518"></path><path d="M725.325208 810.658292a63.999313 63.999313 0 1 0 127.998625 0 63.999313 63.999313 0 1 0-127.998625 0z" fill="#ffffff" p-id="3519"></path><path d="M910.283222 597.326583h-241.917402L548.389109 810.658292 668.36582 1023.989h241.917402l119.977711-213.330708-119.977711-213.331709z m-49.876465 85.333084l71.978227 127.998625-72.021226 127.998625H718.328284l-72.020227-127.998625 71.977227-127.998625h142.121473z" fill="#ffffff" p-id="3520"></path></svg>