<?xml version="1.0" standalone="no"?><!DOCTYPE svg PUBLIC "-//W3C//DTD SVG 1.1//EN" "http://www.w3.org/Graphics/SVG/1.1/DTD/svg11.dtd"><svg t="1689748978619" class="icon" viewBox="0 0 1024 1024" version="1.1" xmlns="http://www.w3.org/2000/svg" p-id="3234" xmlns:xlink="http://www.w3.org/1999/xlink" width="200" height="200"><path d="M512 42.667c233.045 0 426.667 86.058 426.667 213.333v256.64a42.667 42.667 0 0 1-85.035 4.992l-0.299-4.992 0.043-125.099c-78.25 51.371-202.88 81.792-341.376 81.792-138.496 0-263.083-30.378-341.333-81.749v39.808l0.256 3.627c6.144 56.448 132.352 117.248 300.032 123.648a42.667 42.667 0 1 1-3.243 85.248c-120.448-4.608-227.2-33.707-297.045-80.043v38.187l0.256 3.968c5.205 49.237 90.624 103.21 219.776 123.776a42.667 42.667 0 1 1-13.398 84.309c-83.328-13.27-155.093-39.253-206.634-74.752v34.475c0 53.888 121.13 115.498 288.768 126.25a42.667 42.667 0 0 1-5.462 85.163c-203.306-13.013-361.77-91.733-368.426-204.032l-0.214-7.381V256l0.214-7.168C92.672 125.525 283.307 42.667 512 42.667zM512 128c-191.147 0-341.333 66.773-341.333 128S320.853 384 512 384s341.333-66.773 341.333-128S703.147 128 512 128z" fill="#ffffff" p-id="3235"></path><path d="M682.667 810.667a64 64 0 1 0 128 0 64 64 0 1 0-128 0z" fill="#ffffff" p-id="3236"></path><path d="M867.627 597.333h-241.92L505.728 810.667 625.707 1024h241.92l119.978-213.333-119.978-213.334z m-49.92 85.334l71.978 128-72.021 128H675.627l-72.022-128 71.979-128h142.123z" fill="#ffffff" p-id="3237"></path></svg>