<?xml version="1.0" standalone="no"?><!DOCTYPE svg PUBLIC "-//W3C//DTD SVG 1.1//EN" "http://www.w3.org/Graphics/SVG/1.1/DTD/svg11.dtd"><svg t="1689748973229" class="icon" viewBox="0 0 1030 1024" version="1.1" xmlns="http://www.w3.org/2000/svg" p-id="3092" xmlns:xlink="http://www.w3.org/1999/xlink" width="201.171875" height="200"><path d="M725.308 810.674a63.998 63.998 0 1 0 127.995 0 63.998 63.998 0 1 0-127.995 0z" fill="#ffffff" p-id="3093"></path><path d="M910.261 597.348H668.35L548.375 810.674 668.35 1024H910.26l119.975-213.326L910.26 597.348z m-49.918 85.33l71.976 127.996L860.3 938.67H718.268l-72.019-127.996 71.976-127.995h142.118z" fill="#ffffff" p-id="3094"></path><path d="M440.902 100a341.15 341.15 0 0 1 332.447-87.59c39.764 10.964 51.07 66.13 23.465 93.735l-84.391 84.391a85.33 85.33 0 0 0 0 120.7 85.33 85.33 0 0 0 110.503 8.874l5.546-4.565 4.608-4.31 85.245-85.201c26.75-26.709 81.064-17.621 92.327 22.185 22.613 79.784 15.445 165.541-20.436 240.504a42.665 42.665 0 0 1-76.968-36.82c17.919-37.46 26.281-78.59 24.83-119.548l-0.298-5.162-45.225 45.225-6.4 5.973a170.66 170.66 0 0 1-240.503-241.357l6.4-6.826 44.457-44.457-10.112-0.384c-64.424-1.067-127.995 22.185-177.103 67.283l-8.064 7.68a255.863 255.863 0 0 0-66.685 245.75l2.944 10.454 8.575 28.073L129.318 691.34l-5.674 5.333c-42.196 42.153-35.071 130.385 14.378 179.834a110.939 110.939 0 0 0 5.674 5.29c52.82 46.25 140.198 47.87 178.682 3.925l69.33-82.856a42.665 42.665 0 1 1 65.45 54.783l-69.972 83.538C314.784 1024 173.647 1021.44 87.55 946.05a202.318 202.318 0 0 1-9.813-9.216c-80.808-80.765-92.285-222.67-14.42-300.533l8.105-7.595 3.627-3.157 273.398-213.027-1.493-7.253a341.108 341.108 0 0 1 85.16-296.096l8.831-9.173z" fill="#ffffff" p-id="3095"></path><path d="M258.039 724.747a42.665 42.665 0 1 0 85.33 0 42.665 42.665 0 1 0-85.33 0z" fill="#ffffff" p-id="3096"></path></svg>